<mxfile host="app.diagrams.net" modified="2022-02-04T09:50:59.302Z" agent="5.0 (X11)" etag="dGiAATDt0gxlzArNIJy7" version="16.5.2" type="github">
  <diagram id="hAJlr7_38naY_VEKnSWe" name="Page-1">
    <mxGraphModel dx="1301" dy="255" grid="1" gridSize="10" guides="1" tooltips="1" connect="1" arrows="1" fold="1" page="1" pageScale="1" pageWidth="827" pageHeight="1169" math="0" shadow="0">
      <root>
        <mxCell id="0" />
        <mxCell id="1" parent="0" />
        <mxCell id="wU6lkk-Ef7fBL7S0k7bZ-24" value="Review" style="shape=table;startSize=50;container=1;collapsible=1;childLayout=tableLayout;fixedRows=1;rowLines=0;fontStyle=1;align=center;resizeLast=1;spacingTop=1;fontFamily=Helvetica;labelBorderColor=none;fillColor=#fad9d5;strokeColor=#ae4132;rounded=0;" parent="1" vertex="1">
          <mxGeometry x="160" y="129" width="200" height="390" as="geometry">
            <mxRectangle x="180" y="180" width="70" height="50" as="alternateBounds" />
          </mxGeometry>
        </mxCell>
        <mxCell id="wU6lkk-Ef7fBL7S0k7bZ-25" value="" style="shape=partialRectangle;collapsible=0;dropTarget=0;pointerEvents=0;fillColor=none;top=0;left=0;bottom=1;right=0;points=[[0,0.5],[1,0.5]];portConstraint=eastwest;rounded=0;" parent="wU6lkk-Ef7fBL7S0k7bZ-24" vertex="1">
          <mxGeometry y="50" width="200" height="40" as="geometry" />
        </mxCell>
        <mxCell id="wU6lkk-Ef7fBL7S0k7bZ-26" value="PK" style="shape=partialRectangle;connectable=0;fillColor=none;top=0;left=0;bottom=0;right=0;fontStyle=1;overflow=hidden;rounded=0;" parent="wU6lkk-Ef7fBL7S0k7bZ-25" vertex="1">
          <mxGeometry width="30" height="40" as="geometry">
            <mxRectangle width="30" height="40" as="alternateBounds" />
          </mxGeometry>
        </mxCell>
        <mxCell id="wU6lkk-Ef7fBL7S0k7bZ-27" value="reviewId" style="shape=partialRectangle;connectable=0;fillColor=none;top=0;left=0;bottom=0;right=0;align=left;spacingLeft=6;fontStyle=5;overflow=hidden;rounded=0;" parent="wU6lkk-Ef7fBL7S0k7bZ-25" vertex="1">
          <mxGeometry x="30" width="170" height="40" as="geometry">
            <mxRectangle width="170" height="40" as="alternateBounds" />
          </mxGeometry>
        </mxCell>
        <mxCell id="wU6lkk-Ef7fBL7S0k7bZ-34" value="" style="shape=partialRectangle;collapsible=0;dropTarget=0;pointerEvents=0;fillColor=none;top=0;left=0;bottom=0;right=0;points=[[0,0.5],[1,0.5]];portConstraint=eastwest;rounded=0;" parent="wU6lkk-Ef7fBL7S0k7bZ-24" vertex="1">
          <mxGeometry y="90" width="200" height="30" as="geometry" />
        </mxCell>
        <mxCell id="wU6lkk-Ef7fBL7S0k7bZ-35" value="FK" style="shape=partialRectangle;connectable=0;fillColor=none;top=0;left=0;bottom=0;right=0;editable=1;overflow=hidden;rounded=0;" parent="wU6lkk-Ef7fBL7S0k7bZ-34" vertex="1">
          <mxGeometry width="30" height="30" as="geometry">
            <mxRectangle width="30" height="30" as="alternateBounds" />
          </mxGeometry>
        </mxCell>
        <mxCell id="wU6lkk-Ef7fBL7S0k7bZ-36" value="authorId" style="shape=partialRectangle;connectable=0;fillColor=none;top=0;left=0;bottom=0;right=0;align=left;spacingLeft=6;overflow=hidden;fontStyle=4;rounded=0;" parent="wU6lkk-Ef7fBL7S0k7bZ-34" vertex="1">
          <mxGeometry x="30" width="170" height="30" as="geometry">
            <mxRectangle width="170" height="30" as="alternateBounds" />
          </mxGeometry>
        </mxCell>
        <mxCell id="wU6lkk-Ef7fBL7S0k7bZ-28" value="" style="shape=partialRectangle;collapsible=0;dropTarget=0;pointerEvents=0;fillColor=none;top=0;left=0;bottom=0;right=0;points=[[0,0.5],[1,0.5]];portConstraint=eastwest;rounded=0;" parent="wU6lkk-Ef7fBL7S0k7bZ-24" vertex="1">
          <mxGeometry y="120" width="200" height="30" as="geometry" />
        </mxCell>
        <mxCell id="wU6lkk-Ef7fBL7S0k7bZ-29" value="" style="shape=partialRectangle;connectable=0;fillColor=none;top=0;left=0;bottom=0;right=0;editable=1;overflow=hidden;rounded=0;" parent="wU6lkk-Ef7fBL7S0k7bZ-28" vertex="1">
          <mxGeometry width="30" height="30" as="geometry">
            <mxRectangle width="30" height="30" as="alternateBounds" />
          </mxGeometry>
        </mxCell>
        <mxCell id="wU6lkk-Ef7fBL7S0k7bZ-30" value="createdAt" style="shape=partialRectangle;connectable=0;fillColor=none;top=0;left=0;bottom=0;right=0;align=left;spacingLeft=6;overflow=hidden;rounded=0;" parent="wU6lkk-Ef7fBL7S0k7bZ-28" vertex="1">
          <mxGeometry x="30" width="170" height="30" as="geometry">
            <mxRectangle width="170" height="30" as="alternateBounds" />
          </mxGeometry>
        </mxCell>
        <mxCell id="keo1zelIInVa2BC7bCIQ-1" value="" style="shape=partialRectangle;collapsible=0;dropTarget=0;pointerEvents=0;fillColor=none;top=0;left=0;bottom=0;right=0;points=[[0,0.5],[1,0.5]];portConstraint=eastwest;rounded=0;" parent="wU6lkk-Ef7fBL7S0k7bZ-24" vertex="1">
          <mxGeometry y="150" width="200" height="30" as="geometry" />
        </mxCell>
        <mxCell id="keo1zelIInVa2BC7bCIQ-2" value="" style="shape=partialRectangle;connectable=0;fillColor=none;top=0;left=0;bottom=0;right=0;editable=1;overflow=hidden;rounded=0;" parent="keo1zelIInVa2BC7bCIQ-1" vertex="1">
          <mxGeometry width="30" height="30" as="geometry">
            <mxRectangle width="30" height="30" as="alternateBounds" />
          </mxGeometry>
        </mxCell>
        <mxCell id="keo1zelIInVa2BC7bCIQ-3" value="status" style="shape=partialRectangle;connectable=0;fillColor=none;top=0;left=0;bottom=0;right=0;align=left;spacingLeft=6;overflow=hidden;rounded=0;" parent="keo1zelIInVa2BC7bCIQ-1" vertex="1">
          <mxGeometry x="30" width="170" height="30" as="geometry">
            <mxRectangle width="170" height="30" as="alternateBounds" />
          </mxGeometry>
        </mxCell>
        <mxCell id="keo1zelIInVa2BC7bCIQ-93" value="" style="shape=partialRectangle;collapsible=0;dropTarget=0;pointerEvents=0;fillColor=none;top=0;left=0;bottom=0;right=0;points=[[0,0.5],[1,0.5]];portConstraint=eastwest;rounded=0;" parent="wU6lkk-Ef7fBL7S0k7bZ-24" vertex="1">
          <mxGeometry y="180" width="200" height="30" as="geometry" />
        </mxCell>
        <mxCell id="keo1zelIInVa2BC7bCIQ-94" value="" style="shape=partialRectangle;connectable=0;fillColor=none;top=0;left=0;bottom=0;right=0;editable=1;overflow=hidden;rounded=0;" parent="keo1zelIInVa2BC7bCIQ-93" vertex="1">
          <mxGeometry width="30" height="30" as="geometry">
            <mxRectangle width="30" height="30" as="alternateBounds" />
          </mxGeometry>
        </mxCell>
        <mxCell id="keo1zelIInVa2BC7bCIQ-95" value="patchSetCount" style="shape=partialRectangle;connectable=0;fillColor=#fad7ac;top=0;left=0;bottom=0;right=0;align=left;spacingLeft=6;overflow=hidden;labelBackgroundColor=none;strokeColor=#b46504;rounded=0;" parent="keo1zelIInVa2BC7bCIQ-93" vertex="1">
          <mxGeometry x="30" width="170" height="30" as="geometry">
            <mxRectangle width="170" height="30" as="alternateBounds" />
          </mxGeometry>
        </mxCell>
        <mxCell id="keo1zelIInVa2BC7bCIQ-96" value="" style="shape=partialRectangle;collapsible=0;dropTarget=0;pointerEvents=0;fillColor=none;top=0;left=0;bottom=0;right=0;points=[[0,0.5],[1,0.5]];portConstraint=eastwest;rounded=0;" parent="wU6lkk-Ef7fBL7S0k7bZ-24" vertex="1">
          <mxGeometry y="210" width="200" height="30" as="geometry" />
        </mxCell>
        <mxCell id="keo1zelIInVa2BC7bCIQ-97" value="" style="shape=partialRectangle;connectable=0;fillColor=none;top=0;left=0;bottom=0;right=0;editable=1;overflow=hidden;rounded=0;" parent="keo1zelIInVa2BC7bCIQ-96" vertex="1">
          <mxGeometry width="30" height="30" as="geometry">
            <mxRectangle width="30" height="30" as="alternateBounds" />
          </mxGeometry>
        </mxCell>
        <mxCell id="keo1zelIInVa2BC7bCIQ-98" value="affectedFilesCount" style="shape=partialRectangle;connectable=0;fillColor=#fad7ac;top=0;left=0;bottom=0;right=0;align=left;spacingLeft=6;overflow=hidden;labelBackgroundColor=none;rounded=0;strokeColor=#b46504;" parent="keo1zelIInVa2BC7bCIQ-96" vertex="1">
          <mxGeometry x="30" width="170" height="30" as="geometry">
            <mxRectangle width="170" height="30" as="alternateBounds" />
          </mxGeometry>
        </mxCell>
        <mxCell id="keo1zelIInVa2BC7bCIQ-99" value="" style="shape=partialRectangle;collapsible=0;dropTarget=0;pointerEvents=0;fillColor=none;top=0;left=0;bottom=0;right=0;points=[[0,0.5],[1,0.5]];portConstraint=eastwest;rounded=0;" parent="wU6lkk-Ef7fBL7S0k7bZ-24" vertex="1">
          <mxGeometry y="240" width="200" height="30" as="geometry" />
        </mxCell>
        <mxCell id="keo1zelIInVa2BC7bCIQ-100" value="" style="shape=partialRectangle;connectable=0;fillColor=none;top=0;left=0;bottom=0;right=0;editable=1;overflow=hidden;rounded=0;" parent="keo1zelIInVa2BC7bCIQ-99" vertex="1">
          <mxGeometry width="30" height="30" as="geometry">
            <mxRectangle width="30" height="30" as="alternateBounds" />
          </mxGeometry>
        </mxCell>
        <mxCell id="keo1zelIInVa2BC7bCIQ-101" value="churnSize" style="shape=partialRectangle;connectable=0;fillColor=#fad7ac;top=0;left=0;bottom=0;right=0;align=left;spacingLeft=6;overflow=hidden;labelBackgroundColor=none;rounded=0;strokeColor=#b46504;" parent="keo1zelIInVa2BC7bCIQ-99" vertex="1">
          <mxGeometry x="30" width="170" height="30" as="geometry">
            <mxRectangle width="170" height="30" as="alternateBounds" />
          </mxGeometry>
        </mxCell>
        <mxCell id="keo1zelIInVa2BC7bCIQ-102" value="" style="shape=partialRectangle;collapsible=0;dropTarget=0;pointerEvents=0;fillColor=none;top=0;left=0;bottom=0;right=0;points=[[0,0.5],[1,0.5]];portConstraint=eastwest;rounded=0;" parent="wU6lkk-Ef7fBL7S0k7bZ-24" vertex="1">
          <mxGeometry y="270" width="200" height="30" as="geometry" />
        </mxCell>
        <mxCell id="keo1zelIInVa2BC7bCIQ-103" value="" style="shape=partialRectangle;connectable=0;fillColor=none;top=0;left=0;bottom=0;right=0;editable=1;overflow=hidden;rounded=0;" parent="keo1zelIInVa2BC7bCIQ-102" vertex="1">
          <mxGeometry width="30" height="30" as="geometry">
            <mxRectangle width="30" height="30" as="alternateBounds" />
          </mxGeometry>
        </mxCell>
        <mxCell id="keo1zelIInVa2BC7bCIQ-104" value="initialResponseTimeInHours" style="shape=partialRectangle;connectable=0;fillColor=#fad7ac;top=0;left=0;bottom=0;right=0;align=left;spacingLeft=6;overflow=hidden;labelBackgroundColor=none;rounded=0;strokeColor=#b46504;" parent="keo1zelIInVa2BC7bCIQ-102" vertex="1">
          <mxGeometry x="30" width="170" height="30" as="geometry">
            <mxRectangle width="170" height="30" as="alternateBounds" />
          </mxGeometry>
        </mxCell>
        <mxCell id="keo1zelIInVa2BC7bCIQ-105" value="" style="shape=partialRectangle;collapsible=0;dropTarget=0;pointerEvents=0;fillColor=none;top=0;left=0;bottom=0;right=0;points=[[0,0.5],[1,0.5]];portConstraint=eastwest;rounded=0;" parent="wU6lkk-Ef7fBL7S0k7bZ-24" vertex="1">
          <mxGeometry y="300" width="200" height="30" as="geometry" />
        </mxCell>
        <mxCell id="keo1zelIInVa2BC7bCIQ-106" value="" style="shape=partialRectangle;connectable=0;fillColor=none;top=0;left=0;bottom=0;right=0;editable=1;overflow=hidden;rounded=0;" parent="keo1zelIInVa2BC7bCIQ-105" vertex="1">
          <mxGeometry width="30" height="30" as="geometry">
            <mxRectangle width="30" height="30" as="alternateBounds" />
          </mxGeometry>
        </mxCell>
        <mxCell id="keo1zelIInVa2BC7bCIQ-107" value="overallAuthorialSentiment" style="shape=partialRectangle;connectable=0;fillColor=#fad7ac;top=0;left=0;bottom=0;right=0;align=left;spacingLeft=6;overflow=hidden;labelBackgroundColor=none;rounded=0;strokeColor=#b46504;" parent="keo1zelIInVa2BC7bCIQ-105" vertex="1">
          <mxGeometry x="30" width="170" height="30" as="geometry">
            <mxRectangle width="170" height="30" as="alternateBounds" />
          </mxGeometry>
        </mxCell>
        <mxCell id="keo1zelIInVa2BC7bCIQ-180" value="" style="shape=partialRectangle;collapsible=0;dropTarget=0;pointerEvents=0;fillColor=none;top=0;left=0;bottom=0;right=0;points=[[0,0.5],[1,0.5]];portConstraint=eastwest;rounded=0;" parent="wU6lkk-Ef7fBL7S0k7bZ-24" vertex="1">
          <mxGeometry y="330" width="200" height="30" as="geometry" />
        </mxCell>
        <mxCell id="keo1zelIInVa2BC7bCIQ-181" value="" style="shape=partialRectangle;connectable=0;fillColor=none;top=0;left=0;bottom=0;right=0;editable=1;overflow=hidden;rounded=0;" parent="keo1zelIInVa2BC7bCIQ-180" vertex="1">
          <mxGeometry width="30" height="30" as="geometry">
            <mxRectangle width="30" height="30" as="alternateBounds" />
          </mxGeometry>
        </mxCell>
        <mxCell id="keo1zelIInVa2BC7bCIQ-182" value="overallReviewerSentiment" style="shape=partialRectangle;connectable=0;fillColor=#fad7ac;top=0;left=0;bottom=0;right=0;align=left;spacingLeft=6;overflow=hidden;fontStyle=0;labelBackgroundColor=none;rounded=0;strokeColor=#b46504;" parent="keo1zelIInVa2BC7bCIQ-180" vertex="1">
          <mxGeometry x="30" width="170" height="30" as="geometry">
            <mxRectangle width="170" height="30" as="alternateBounds" />
          </mxGeometry>
        </mxCell>
        <mxCell id="OVHZSuFx9vAs1rCtU07P-5" value="" style="shape=partialRectangle;collapsible=0;dropTarget=0;pointerEvents=0;fillColor=none;top=0;left=0;bottom=0;right=0;points=[[0,0.5],[1,0.5]];portConstraint=eastwest;rounded=0;" vertex="1" parent="wU6lkk-Ef7fBL7S0k7bZ-24">
          <mxGeometry y="360" width="200" height="30" as="geometry" />
        </mxCell>
        <mxCell id="OVHZSuFx9vAs1rCtU07P-6" value="FK" style="shape=partialRectangle;connectable=0;fillColor=none;top=0;left=0;bottom=0;right=0;editable=1;overflow=hidden;rounded=0;" vertex="1" parent="OVHZSuFx9vAs1rCtU07P-5">
          <mxGeometry width="30" height="30" as="geometry">
            <mxRectangle width="30" height="30" as="alternateBounds" />
          </mxGeometry>
        </mxCell>
        <mxCell id="OVHZSuFx9vAs1rCtU07P-7" value="firstCommendId" style="shape=partialRectangle;connectable=0;fillColor=#fad7ac;top=0;left=0;bottom=0;right=0;align=left;spacingLeft=6;overflow=hidden;labelBackgroundColor=none;rounded=0;strokeColor=#b46504;fontStyle=4" vertex="1" parent="OVHZSuFx9vAs1rCtU07P-5">
          <mxGeometry x="30" width="170" height="30" as="geometry">
            <mxRectangle width="170" height="30" as="alternateBounds" />
          </mxGeometry>
        </mxCell>
        <mxCell id="keo1zelIInVa2BC7bCIQ-108" value="Comment" style="shape=table;startSize=50;container=1;collapsible=1;childLayout=tableLayout;fixedRows=1;rowLines=0;fontStyle=1;align=center;resizeLast=1;fillColor=#fad9d5;strokeColor=#ae4132;rounded=0;" parent="1" vertex="1">
          <mxGeometry x="160" y="560" width="200" height="270" as="geometry">
            <mxRectangle x="180" y="610" width="90" height="50" as="alternateBounds" />
          </mxGeometry>
        </mxCell>
        <mxCell id="keo1zelIInVa2BC7bCIQ-109" value="" style="shape=partialRectangle;collapsible=0;dropTarget=0;pointerEvents=0;fillColor=none;top=0;left=0;bottom=1;right=0;points=[[0,0.5],[1,0.5]];portConstraint=eastwest;rounded=0;" parent="keo1zelIInVa2BC7bCIQ-108" vertex="1">
          <mxGeometry y="50" width="200" height="40" as="geometry" />
        </mxCell>
        <mxCell id="keo1zelIInVa2BC7bCIQ-110" value="PK" style="shape=partialRectangle;connectable=0;fillColor=none;top=0;left=0;bottom=0;right=0;fontStyle=1;overflow=hidden;rounded=0;" parent="keo1zelIInVa2BC7bCIQ-109" vertex="1">
          <mxGeometry width="30" height="40" as="geometry">
            <mxRectangle width="30" height="40" as="alternateBounds" />
          </mxGeometry>
        </mxCell>
        <mxCell id="keo1zelIInVa2BC7bCIQ-111" value="commentId" style="shape=partialRectangle;connectable=0;fillColor=none;top=0;left=0;bottom=0;right=0;align=left;spacingLeft=6;fontStyle=5;overflow=hidden;rounded=0;" parent="keo1zelIInVa2BC7bCIQ-109" vertex="1">
          <mxGeometry x="30" width="170" height="40" as="geometry">
            <mxRectangle width="170" height="40" as="alternateBounds" />
          </mxGeometry>
        </mxCell>
        <mxCell id="keo1zelIInVa2BC7bCIQ-112" value="" style="shape=partialRectangle;collapsible=0;dropTarget=0;pointerEvents=0;fillColor=none;top=0;left=0;bottom=0;right=0;points=[[0,0.5],[1,0.5]];portConstraint=eastwest;rounded=0;" parent="keo1zelIInVa2BC7bCIQ-108" vertex="1">
          <mxGeometry y="90" width="200" height="30" as="geometry" />
        </mxCell>
        <mxCell id="keo1zelIInVa2BC7bCIQ-113" value="FK" style="shape=partialRectangle;connectable=0;fillColor=none;top=0;left=0;bottom=0;right=0;editable=1;overflow=hidden;rounded=0;" parent="keo1zelIInVa2BC7bCIQ-112" vertex="1">
          <mxGeometry width="30" height="30" as="geometry">
            <mxRectangle width="30" height="30" as="alternateBounds" />
          </mxGeometry>
        </mxCell>
        <mxCell id="keo1zelIInVa2BC7bCIQ-114" value="reviewId" style="shape=partialRectangle;connectable=0;fillColor=none;top=0;left=0;bottom=0;right=0;align=left;spacingLeft=6;overflow=hidden;strokeColor=default;fontStyle=4;rounded=0;" parent="keo1zelIInVa2BC7bCIQ-112" vertex="1">
          <mxGeometry x="30" width="170" height="30" as="geometry">
            <mxRectangle width="170" height="30" as="alternateBounds" />
          </mxGeometry>
        </mxCell>
        <mxCell id="keo1zelIInVa2BC7bCIQ-115" value="" style="shape=partialRectangle;collapsible=0;dropTarget=0;pointerEvents=0;fillColor=none;top=0;left=0;bottom=0;right=0;points=[[0,0.5],[1,0.5]];portConstraint=eastwest;rounded=0;" parent="keo1zelIInVa2BC7bCIQ-108" vertex="1">
          <mxGeometry y="120" width="200" height="30" as="geometry" />
        </mxCell>
        <mxCell id="keo1zelIInVa2BC7bCIQ-116" value="FK" style="shape=partialRectangle;connectable=0;fillColor=none;top=0;left=0;bottom=0;right=0;editable=1;overflow=hidden;rounded=0;" parent="keo1zelIInVa2BC7bCIQ-115" vertex="1">
          <mxGeometry width="30" height="30" as="geometry">
            <mxRectangle width="30" height="30" as="alternateBounds" />
          </mxGeometry>
        </mxCell>
        <mxCell id="keo1zelIInVa2BC7bCIQ-117" value="patchSetId" style="shape=partialRectangle;connectable=0;fillColor=none;top=0;left=0;bottom=0;right=0;align=left;spacingLeft=6;overflow=hidden;fontStyle=4;rounded=0;" parent="keo1zelIInVa2BC7bCIQ-115" vertex="1">
          <mxGeometry x="30" width="170" height="30" as="geometry">
            <mxRectangle width="170" height="30" as="alternateBounds" />
          </mxGeometry>
        </mxCell>
        <mxCell id="keo1zelIInVa2BC7bCIQ-118" value="" style="shape=partialRectangle;collapsible=0;dropTarget=0;pointerEvents=0;fillColor=none;top=0;left=0;bottom=0;right=0;points=[[0,0.5],[1,0.5]];portConstraint=eastwest;rounded=0;" parent="keo1zelIInVa2BC7bCIQ-108" vertex="1">
          <mxGeometry y="150" width="200" height="30" as="geometry" />
        </mxCell>
        <mxCell id="keo1zelIInVa2BC7bCIQ-119" value="FK" style="shape=partialRectangle;connectable=0;fillColor=none;top=0;left=0;bottom=0;right=0;editable=1;overflow=hidden;rounded=0;" parent="keo1zelIInVa2BC7bCIQ-118" vertex="1">
          <mxGeometry width="30" height="30" as="geometry">
            <mxRectangle width="30" height="30" as="alternateBounds" />
          </mxGeometry>
        </mxCell>
        <mxCell id="keo1zelIInVa2BC7bCIQ-120" value="authorId" style="shape=partialRectangle;connectable=0;fillColor=none;top=0;left=0;bottom=0;right=0;align=left;spacingLeft=6;overflow=hidden;fontStyle=4;rounded=0;" parent="keo1zelIInVa2BC7bCIQ-118" vertex="1">
          <mxGeometry x="30" width="170" height="30" as="geometry">
            <mxRectangle width="170" height="30" as="alternateBounds" />
          </mxGeometry>
        </mxCell>
        <mxCell id="keo1zelIInVa2BC7bCIQ-121" value="" style="shape=partialRectangle;collapsible=0;dropTarget=0;pointerEvents=0;fillColor=none;top=0;left=0;bottom=0;right=0;points=[[0,0.5],[1,0.5]];portConstraint=eastwest;rounded=0;" parent="keo1zelIInVa2BC7bCIQ-108" vertex="1">
          <mxGeometry y="180" width="200" height="30" as="geometry" />
        </mxCell>
        <mxCell id="keo1zelIInVa2BC7bCIQ-122" value="" style="shape=partialRectangle;connectable=0;fillColor=none;top=0;left=0;bottom=0;right=0;editable=1;overflow=hidden;rounded=0;" parent="keo1zelIInVa2BC7bCIQ-121" vertex="1">
          <mxGeometry width="30" height="30" as="geometry">
            <mxRectangle width="30" height="30" as="alternateBounds" />
          </mxGeometry>
        </mxCell>
        <mxCell id="keo1zelIInVa2BC7bCIQ-123" value="content" style="shape=partialRectangle;connectable=0;fillColor=none;top=0;left=0;bottom=0;right=0;align=left;spacingLeft=6;overflow=hidden;rounded=0;" parent="keo1zelIInVa2BC7bCIQ-121" vertex="1">
          <mxGeometry x="30" width="170" height="30" as="geometry">
            <mxRectangle width="170" height="30" as="alternateBounds" />
          </mxGeometry>
        </mxCell>
        <mxCell id="keo1zelIInVa2BC7bCIQ-139" value="" style="shape=partialRectangle;collapsible=0;dropTarget=0;pointerEvents=0;fillColor=none;top=0;left=0;bottom=0;right=0;points=[[0,0.5],[1,0.5]];portConstraint=eastwest;rounded=0;" parent="keo1zelIInVa2BC7bCIQ-108" vertex="1">
          <mxGeometry y="210" width="200" height="30" as="geometry" />
        </mxCell>
        <mxCell id="keo1zelIInVa2BC7bCIQ-140" value="" style="shape=partialRectangle;connectable=0;fillColor=none;top=0;left=0;bottom=0;right=0;editable=1;overflow=hidden;rounded=0;" parent="keo1zelIInVa2BC7bCIQ-139" vertex="1">
          <mxGeometry width="30" height="30" as="geometry">
            <mxRectangle width="30" height="30" as="alternateBounds" />
          </mxGeometry>
        </mxCell>
        <mxCell id="keo1zelIInVa2BC7bCIQ-141" value="createdAt" style="shape=partialRectangle;connectable=0;fillColor=none;top=0;left=0;bottom=0;right=0;align=left;spacingLeft=6;overflow=hidden;rounded=0;" parent="keo1zelIInVa2BC7bCIQ-139" vertex="1">
          <mxGeometry x="30" width="170" height="30" as="geometry">
            <mxRectangle width="170" height="30" as="alternateBounds" />
          </mxGeometry>
        </mxCell>
        <mxCell id="keo1zelIInVa2BC7bCIQ-164" value="" style="shape=partialRectangle;collapsible=0;dropTarget=0;pointerEvents=0;fillColor=none;top=0;left=0;bottom=0;right=0;points=[[0,0.5],[1,0.5]];portConstraint=eastwest;rounded=0;" parent="keo1zelIInVa2BC7bCIQ-108" vertex="1">
          <mxGeometry y="240" width="200" height="30" as="geometry" />
        </mxCell>
        <mxCell id="keo1zelIInVa2BC7bCIQ-165" value="" style="shape=partialRectangle;connectable=0;fillColor=none;top=0;left=0;bottom=0;right=0;editable=1;overflow=hidden;rounded=0;" parent="keo1zelIInVa2BC7bCIQ-164" vertex="1">
          <mxGeometry width="30" height="30" as="geometry">
            <mxRectangle width="30" height="30" as="alternateBounds" />
          </mxGeometry>
        </mxCell>
        <mxCell id="keo1zelIInVa2BC7bCIQ-166" value="sentiment" style="shape=partialRectangle;connectable=0;fillColor=#fad7ac;top=0;left=0;bottom=0;right=0;align=left;spacingLeft=6;overflow=hidden;rounded=0;strokeColor=#b46504;" parent="keo1zelIInVa2BC7bCIQ-164" vertex="1">
          <mxGeometry x="30" width="170" height="30" as="geometry">
            <mxRectangle width="170" height="30" as="alternateBounds" />
          </mxGeometry>
        </mxCell>
        <mxCell id="keo1zelIInVa2BC7bCIQ-223" style="endArrow=none;edgeStyle=orthogonalEdgeStyle;orthogonalLoop=1;jettySize=auto;html=1;entryX=0.5;entryY=0;entryDx=0;entryDy=0;fontFamily=Helvetica;curved=1;rounded=0;" parent="1" source="keo1zelIInVa2BC7bCIQ-142" target="keo1zelIInVa2BC7bCIQ-186" edge="1">
          <mxGeometry relative="1" as="geometry" />
        </mxCell>
        <mxCell id="keo1zelIInVa2BC7bCIQ-142" value="PatchSet" style="shape=table;startSize=50;container=1;collapsible=1;childLayout=tableLayout;fixedRows=1;rowLines=0;fontStyle=1;align=center;resizeLast=1;fillColor=#fad9d5;strokeColor=#ae4132;rounded=0;" parent="1" vertex="1">
          <mxGeometry x="459.83" y="190" width="200" height="180" as="geometry">
            <mxRectangle x="560" y="190" width="80" height="50" as="alternateBounds" />
          </mxGeometry>
        </mxCell>
        <mxCell id="keo1zelIInVa2BC7bCIQ-143" value="" style="shape=partialRectangle;collapsible=0;dropTarget=0;pointerEvents=0;fillColor=none;top=0;left=0;bottom=1;right=0;points=[[0,0.5],[1,0.5]];portConstraint=eastwest;rounded=0;" parent="keo1zelIInVa2BC7bCIQ-142" vertex="1">
          <mxGeometry y="50" width="200" height="40" as="geometry" />
        </mxCell>
        <mxCell id="keo1zelIInVa2BC7bCIQ-144" value="PK" style="shape=partialRectangle;connectable=0;fillColor=none;top=0;left=0;bottom=0;right=0;fontStyle=1;overflow=hidden;rounded=0;" parent="keo1zelIInVa2BC7bCIQ-143" vertex="1">
          <mxGeometry width="30" height="40" as="geometry">
            <mxRectangle width="30" height="40" as="alternateBounds" />
          </mxGeometry>
        </mxCell>
        <mxCell id="keo1zelIInVa2BC7bCIQ-145" value="patchSetId" style="shape=partialRectangle;connectable=0;fillColor=none;top=0;left=0;bottom=0;right=0;align=left;spacingLeft=6;fontStyle=5;overflow=hidden;rounded=0;" parent="keo1zelIInVa2BC7bCIQ-143" vertex="1">
          <mxGeometry x="30" width="170" height="40" as="geometry">
            <mxRectangle width="170" height="40" as="alternateBounds" />
          </mxGeometry>
        </mxCell>
        <mxCell id="keo1zelIInVa2BC7bCIQ-146" value="" style="shape=partialRectangle;collapsible=0;dropTarget=0;pointerEvents=0;fillColor=none;top=0;left=0;bottom=0;right=0;points=[[0,0.5],[1,0.5]];portConstraint=eastwest;rounded=0;" parent="keo1zelIInVa2BC7bCIQ-142" vertex="1">
          <mxGeometry y="90" width="200" height="30" as="geometry" />
        </mxCell>
        <mxCell id="keo1zelIInVa2BC7bCIQ-147" value="FK" style="shape=partialRectangle;connectable=0;fillColor=none;top=0;left=0;bottom=0;right=0;editable=1;overflow=hidden;rounded=0;" parent="keo1zelIInVa2BC7bCIQ-146" vertex="1">
          <mxGeometry width="30" height="30" as="geometry">
            <mxRectangle width="30" height="30" as="alternateBounds" />
          </mxGeometry>
        </mxCell>
        <mxCell id="keo1zelIInVa2BC7bCIQ-148" value="reviewId" style="shape=partialRectangle;connectable=0;fillColor=none;top=0;left=0;bottom=0;right=0;align=left;spacingLeft=6;overflow=hidden;strokeColor=default;fontStyle=4;rounded=0;" parent="keo1zelIInVa2BC7bCIQ-146" vertex="1">
          <mxGeometry x="30" width="170" height="30" as="geometry">
            <mxRectangle width="170" height="30" as="alternateBounds" />
          </mxGeometry>
        </mxCell>
        <mxCell id="keo1zelIInVa2BC7bCIQ-152" value="" style="shape=partialRectangle;collapsible=0;dropTarget=0;pointerEvents=0;fillColor=none;top=0;left=0;bottom=0;right=0;points=[[0,0.5],[1,0.5]];portConstraint=eastwest;rounded=0;" parent="keo1zelIInVa2BC7bCIQ-142" vertex="1">
          <mxGeometry y="120" width="200" height="30" as="geometry" />
        </mxCell>
        <mxCell id="keo1zelIInVa2BC7bCIQ-153" value="FK" style="shape=partialRectangle;connectable=0;fillColor=none;top=0;left=0;bottom=0;right=0;editable=1;overflow=hidden;rounded=0;" parent="keo1zelIInVa2BC7bCIQ-152" vertex="1">
          <mxGeometry width="30" height="30" as="geometry">
            <mxRectangle width="30" height="30" as="alternateBounds" />
          </mxGeometry>
        </mxCell>
        <mxCell id="keo1zelIInVa2BC7bCIQ-154" value="patchSetNumber" style="shape=partialRectangle;connectable=0;fillColor=none;top=0;left=0;bottom=0;right=0;align=left;spacingLeft=6;overflow=hidden;fontStyle=4;rounded=0;" parent="keo1zelIInVa2BC7bCIQ-152" vertex="1">
          <mxGeometry x="30" width="170" height="30" as="geometry">
            <mxRectangle width="170" height="30" as="alternateBounds" />
          </mxGeometry>
        </mxCell>
        <mxCell id="keo1zelIInVa2BC7bCIQ-183" value="" style="shape=partialRectangle;collapsible=0;dropTarget=0;pointerEvents=0;fillColor=none;top=0;left=0;bottom=0;right=0;points=[[0,0.5],[1,0.5]];portConstraint=eastwest;rounded=0;" parent="keo1zelIInVa2BC7bCIQ-142" vertex="1">
          <mxGeometry y="150" width="200" height="30" as="geometry" />
        </mxCell>
        <mxCell id="keo1zelIInVa2BC7bCIQ-184" value="" style="shape=partialRectangle;connectable=0;fillColor=none;top=0;left=0;bottom=0;right=0;editable=1;overflow=hidden;rounded=0;" parent="keo1zelIInVa2BC7bCIQ-183" vertex="1">
          <mxGeometry width="30" height="30" as="geometry">
            <mxRectangle width="30" height="30" as="alternateBounds" />
          </mxGeometry>
        </mxCell>
        <mxCell id="keo1zelIInVa2BC7bCIQ-185" value="createdAt" style="shape=partialRectangle;connectable=0;fillColor=none;top=0;left=0;bottom=0;right=0;align=left;spacingLeft=6;overflow=hidden;fontStyle=0;rounded=0;" parent="keo1zelIInVa2BC7bCIQ-183" vertex="1">
          <mxGeometry x="30" width="170" height="30" as="geometry">
            <mxRectangle width="170" height="30" as="alternateBounds" />
          </mxGeometry>
        </mxCell>
        <mxCell id="keo1zelIInVa2BC7bCIQ-167" value="Contributor" style="shape=table;startSize=50;container=1;collapsible=1;childLayout=tableLayout;fixedRows=1;rowLines=0;fontStyle=1;align=center;resizeLast=1;fillColor=#fad9d5;strokeColor=#ae4132;rounded=0;" parent="1" vertex="1">
          <mxGeometry x="-80" y="450" width="200" height="180" as="geometry">
            <mxRectangle x="570" y="560" width="100" height="50" as="alternateBounds" />
          </mxGeometry>
        </mxCell>
        <mxCell id="keo1zelIInVa2BC7bCIQ-168" value="" style="shape=partialRectangle;collapsible=0;dropTarget=0;pointerEvents=0;fillColor=none;top=0;left=0;bottom=1;right=0;points=[[0,0.5],[1,0.5]];portConstraint=eastwest;rounded=0;" parent="keo1zelIInVa2BC7bCIQ-167" vertex="1">
          <mxGeometry y="50" width="200" height="40" as="geometry" />
        </mxCell>
        <mxCell id="keo1zelIInVa2BC7bCIQ-169" value="PK" style="shape=partialRectangle;connectable=0;fillColor=none;top=0;left=0;bottom=0;right=0;fontStyle=1;overflow=hidden;rounded=0;" parent="keo1zelIInVa2BC7bCIQ-168" vertex="1">
          <mxGeometry width="30" height="40" as="geometry">
            <mxRectangle width="30" height="40" as="alternateBounds" />
          </mxGeometry>
        </mxCell>
        <mxCell id="keo1zelIInVa2BC7bCIQ-170" value="accountId" style="shape=partialRectangle;connectable=0;fillColor=none;top=0;left=0;bottom=0;right=0;align=left;spacingLeft=6;fontStyle=5;overflow=hidden;rounded=0;" parent="keo1zelIInVa2BC7bCIQ-168" vertex="1">
          <mxGeometry x="30" width="170" height="40" as="geometry">
            <mxRectangle width="170" height="40" as="alternateBounds" />
          </mxGeometry>
        </mxCell>
        <mxCell id="keo1zelIInVa2BC7bCIQ-171" value="" style="shape=partialRectangle;collapsible=0;dropTarget=0;pointerEvents=0;fillColor=none;top=0;left=0;bottom=0;right=0;points=[[0,0.5],[1,0.5]];portConstraint=eastwest;rounded=0;" parent="keo1zelIInVa2BC7bCIQ-167" vertex="1">
          <mxGeometry y="90" width="200" height="30" as="geometry" />
        </mxCell>
        <mxCell id="keo1zelIInVa2BC7bCIQ-172" value="" style="shape=partialRectangle;connectable=0;fillColor=none;top=0;left=0;bottom=0;right=0;editable=1;overflow=hidden;rounded=0;" parent="keo1zelIInVa2BC7bCIQ-171" vertex="1">
          <mxGeometry width="30" height="30" as="geometry">
            <mxRectangle width="30" height="30" as="alternateBounds" />
          </mxGeometry>
        </mxCell>
        <mxCell id="keo1zelIInVa2BC7bCIQ-173" value="name" style="shape=partialRectangle;connectable=0;fillColor=none;top=0;left=0;bottom=0;right=0;align=left;spacingLeft=6;overflow=hidden;strokeColor=default;fontStyle=0;rounded=0;" parent="keo1zelIInVa2BC7bCIQ-171" vertex="1">
          <mxGeometry x="30" width="170" height="30" as="geometry">
            <mxRectangle width="170" height="30" as="alternateBounds" />
          </mxGeometry>
        </mxCell>
        <mxCell id="keo1zelIInVa2BC7bCIQ-174" value="" style="shape=partialRectangle;collapsible=0;dropTarget=0;pointerEvents=0;fillColor=none;top=0;left=0;bottom=0;right=0;points=[[0,0.5],[1,0.5]];portConstraint=eastwest;rounded=0;" parent="keo1zelIInVa2BC7bCIQ-167" vertex="1">
          <mxGeometry y="120" width="200" height="30" as="geometry" />
        </mxCell>
        <mxCell id="keo1zelIInVa2BC7bCIQ-175" value="" style="shape=partialRectangle;connectable=0;fillColor=none;top=0;left=0;bottom=0;right=0;editable=1;overflow=hidden;rounded=0;" parent="keo1zelIInVa2BC7bCIQ-174" vertex="1">
          <mxGeometry width="30" height="30" as="geometry">
            <mxRectangle width="30" height="30" as="alternateBounds" />
          </mxGeometry>
        </mxCell>
        <mxCell id="keo1zelIInVa2BC7bCIQ-176" value="email" style="shape=partialRectangle;connectable=0;fillColor=none;top=0;left=0;bottom=0;right=0;align=left;spacingLeft=6;overflow=hidden;fontStyle=0;rounded=0;" parent="keo1zelIInVa2BC7bCIQ-174" vertex="1">
          <mxGeometry x="30" width="170" height="30" as="geometry">
            <mxRectangle width="170" height="30" as="alternateBounds" />
          </mxGeometry>
        </mxCell>
        <mxCell id="keo1zelIInVa2BC7bCIQ-177" value="" style="shape=partialRectangle;collapsible=0;dropTarget=0;pointerEvents=0;fillColor=none;top=0;left=0;bottom=0;right=0;points=[[0,0.5],[1,0.5]];portConstraint=eastwest;rounded=0;" parent="keo1zelIInVa2BC7bCIQ-167" vertex="1">
          <mxGeometry y="150" width="200" height="30" as="geometry" />
        </mxCell>
        <mxCell id="keo1zelIInVa2BC7bCIQ-178" value="" style="shape=partialRectangle;connectable=0;fillColor=none;top=0;left=0;bottom=0;right=0;editable=1;overflow=hidden;rounded=0;" parent="keo1zelIInVa2BC7bCIQ-177" vertex="1">
          <mxGeometry width="30" height="30" as="geometry">
            <mxRectangle width="30" height="30" as="alternateBounds" />
          </mxGeometry>
        </mxCell>
        <mxCell id="keo1zelIInVa2BC7bCIQ-179" value="userName" style="shape=partialRectangle;connectable=0;fillColor=none;top=0;left=0;bottom=0;right=0;align=left;spacingLeft=6;overflow=hidden;fontStyle=0;rounded=0;" parent="keo1zelIInVa2BC7bCIQ-177" vertex="1">
          <mxGeometry x="30" width="170" height="30" as="geometry">
            <mxRectangle width="170" height="30" as="alternateBounds" />
          </mxGeometry>
        </mxCell>
        <mxCell id="keo1zelIInVa2BC7bCIQ-186" value="File" style="shape=table;startSize=50;container=1;collapsible=1;childLayout=tableLayout;fixedRows=1;rowLines=0;fontStyle=1;align=center;resizeLast=1;fillColor=#fad9d5;strokeColor=#ae4132;rounded=0;" parent="1" vertex="1">
          <mxGeometry x="459.83" y="450" width="200" height="180" as="geometry">
            <mxRectangle x="-100" y="260" width="50" height="50" as="alternateBounds" />
          </mxGeometry>
        </mxCell>
        <mxCell id="keo1zelIInVa2BC7bCIQ-187" value="" style="shape=partialRectangle;collapsible=0;dropTarget=0;pointerEvents=0;fillColor=none;top=0;left=0;bottom=1;right=0;points=[[0,0.5],[1,0.5]];portConstraint=eastwest;rounded=0;" parent="keo1zelIInVa2BC7bCIQ-186" vertex="1">
          <mxGeometry y="50" width="200" height="40" as="geometry" />
        </mxCell>
        <mxCell id="keo1zelIInVa2BC7bCIQ-188" value="PK" style="shape=partialRectangle;connectable=0;fillColor=none;top=0;left=0;bottom=0;right=0;fontStyle=1;overflow=hidden;rounded=0;" parent="keo1zelIInVa2BC7bCIQ-187" vertex="1">
          <mxGeometry width="30" height="40" as="geometry">
            <mxRectangle width="30" height="40" as="alternateBounds" />
          </mxGeometry>
        </mxCell>
        <mxCell id="keo1zelIInVa2BC7bCIQ-189" value="fileId" style="shape=partialRectangle;connectable=0;fillColor=none;top=0;left=0;bottom=0;right=0;align=left;spacingLeft=6;fontStyle=5;overflow=hidden;rounded=0;" parent="keo1zelIInVa2BC7bCIQ-187" vertex="1">
          <mxGeometry x="30" width="170" height="40" as="geometry">
            <mxRectangle width="170" height="40" as="alternateBounds" />
          </mxGeometry>
        </mxCell>
        <mxCell id="keo1zelIInVa2BC7bCIQ-190" value="" style="shape=partialRectangle;collapsible=0;dropTarget=0;pointerEvents=0;fillColor=none;top=0;left=0;bottom=0;right=0;points=[[0,0.5],[1,0.5]];portConstraint=eastwest;rounded=0;" parent="keo1zelIInVa2BC7bCIQ-186" vertex="1">
          <mxGeometry y="90" width="200" height="30" as="geometry" />
        </mxCell>
        <mxCell id="keo1zelIInVa2BC7bCIQ-191" value="FK" style="shape=partialRectangle;connectable=0;fillColor=none;top=0;left=0;bottom=0;right=0;editable=1;overflow=hidden;rounded=0;" parent="keo1zelIInVa2BC7bCIQ-190" vertex="1">
          <mxGeometry width="30" height="30" as="geometry">
            <mxRectangle width="30" height="30" as="alternateBounds" />
          </mxGeometry>
        </mxCell>
        <mxCell id="keo1zelIInVa2BC7bCIQ-192" value="patchSetId" style="shape=partialRectangle;connectable=0;fillColor=none;top=0;left=0;bottom=0;right=0;align=left;spacingLeft=6;overflow=hidden;strokeColor=default;fontStyle=4;rounded=0;" parent="keo1zelIInVa2BC7bCIQ-190" vertex="1">
          <mxGeometry x="30" width="170" height="30" as="geometry">
            <mxRectangle width="170" height="30" as="alternateBounds" />
          </mxGeometry>
        </mxCell>
        <mxCell id="keo1zelIInVa2BC7bCIQ-193" value="" style="shape=partialRectangle;collapsible=0;dropTarget=0;pointerEvents=0;fillColor=none;top=0;left=0;bottom=0;right=0;points=[[0,0.5],[1,0.5]];portConstraint=eastwest;rounded=0;" parent="keo1zelIInVa2BC7bCIQ-186" vertex="1">
          <mxGeometry y="120" width="200" height="30" as="geometry" />
        </mxCell>
        <mxCell id="keo1zelIInVa2BC7bCIQ-194" value="" style="shape=partialRectangle;connectable=0;fillColor=none;top=0;left=0;bottom=0;right=0;editable=1;overflow=hidden;rounded=0;" parent="keo1zelIInVa2BC7bCIQ-193" vertex="1">
          <mxGeometry width="30" height="30" as="geometry">
            <mxRectangle width="30" height="30" as="alternateBounds" />
          </mxGeometry>
        </mxCell>
        <mxCell id="keo1zelIInVa2BC7bCIQ-195" value="insertedLinesCount" style="shape=partialRectangle;connectable=0;fillColor=none;top=0;left=0;bottom=0;right=0;align=left;spacingLeft=6;overflow=hidden;fontStyle=0;rounded=0;" parent="keo1zelIInVa2BC7bCIQ-193" vertex="1">
          <mxGeometry x="30" width="170" height="30" as="geometry">
            <mxRectangle width="170" height="30" as="alternateBounds" />
          </mxGeometry>
        </mxCell>
        <mxCell id="keo1zelIInVa2BC7bCIQ-196" value="" style="shape=partialRectangle;collapsible=0;dropTarget=0;pointerEvents=0;fillColor=none;top=0;left=0;bottom=0;right=0;points=[[0,0.5],[1,0.5]];portConstraint=eastwest;rounded=0;" parent="keo1zelIInVa2BC7bCIQ-186" vertex="1">
          <mxGeometry y="150" width="200" height="30" as="geometry" />
        </mxCell>
        <mxCell id="keo1zelIInVa2BC7bCIQ-197" value="" style="shape=partialRectangle;connectable=0;fillColor=none;top=0;left=0;bottom=0;right=0;editable=1;overflow=hidden;rounded=0;" parent="keo1zelIInVa2BC7bCIQ-196" vertex="1">
          <mxGeometry width="30" height="30" as="geometry">
            <mxRectangle width="30" height="30" as="alternateBounds" />
          </mxGeometry>
        </mxCell>
        <mxCell id="keo1zelIInVa2BC7bCIQ-198" value="deletedLinesCount" style="shape=partialRectangle;connectable=0;fillColor=none;top=0;left=0;bottom=0;right=0;align=left;spacingLeft=6;overflow=hidden;fontStyle=0;rounded=0;" parent="keo1zelIInVa2BC7bCIQ-196" vertex="1">
          <mxGeometry x="30" width="170" height="30" as="geometry">
            <mxRectangle width="170" height="30" as="alternateBounds" />
          </mxGeometry>
        </mxCell>
        <mxCell id="keo1zelIInVa2BC7bCIQ-243" value="" style="endArrow=none;html=1;endSize=12;startArrow=none;startSize=14;startFill=0;edgeStyle=orthogonalEdgeStyle;fontFamily=Helvetica;strokeWidth=1;curved=1;" parent="1" source="wU6lkk-Ef7fBL7S0k7bZ-24" target="keo1zelIInVa2BC7bCIQ-167" edge="1">
          <mxGeometry relative="1" as="geometry">
            <mxPoint x="200" y="550" as="sourcePoint" />
            <mxPoint x="360" y="550" as="targetPoint" />
          </mxGeometry>
        </mxCell>
        <mxCell id="keo1zelIInVa2BC7bCIQ-244" value="n" style="edgeLabel;resizable=0;html=1;align=left;verticalAlign=top;labelBackgroundColor=none;labelBorderColor=none;fontFamily=Helvetica;strokeWidth=2;fillColor=#BAC8D3;gradientColor=none;" parent="keo1zelIInVa2BC7bCIQ-243" connectable="0" vertex="1">
          <mxGeometry x="-1" relative="1" as="geometry">
            <mxPoint x="-10" y="-24" as="offset" />
          </mxGeometry>
        </mxCell>
        <mxCell id="keo1zelIInVa2BC7bCIQ-245" value="1" style="edgeLabel;resizable=0;html=1;align=right;verticalAlign=top;labelBackgroundColor=none;labelBorderColor=none;fontFamily=Helvetica;strokeWidth=2;fillColor=#BAC8D3;gradientColor=none;" parent="keo1zelIInVa2BC7bCIQ-243" connectable="0" vertex="1">
          <mxGeometry x="1" relative="1" as="geometry">
            <mxPoint x="10" y="-30" as="offset" />
          </mxGeometry>
        </mxCell>
        <mxCell id="keo1zelIInVa2BC7bCIQ-249" value="" style="endArrow=none;html=1;endSize=12;startArrow=none;startSize=14;startFill=0;edgeStyle=orthogonalEdgeStyle;fontFamily=Helvetica;strokeWidth=1;curved=1;" parent="1" source="keo1zelIInVa2BC7bCIQ-142" target="wU6lkk-Ef7fBL7S0k7bZ-24" edge="1">
          <mxGeometry relative="1" as="geometry">
            <mxPoint x="530" y="230" as="sourcePoint" />
            <mxPoint x="440" y="230" as="targetPoint" />
          </mxGeometry>
        </mxCell>
        <mxCell id="keo1zelIInVa2BC7bCIQ-250" value="n" style="edgeLabel;resizable=0;html=1;align=left;verticalAlign=top;labelBackgroundColor=none;labelBorderColor=none;fontFamily=Helvetica;strokeWidth=2;fillColor=#BAC8D3;gradientColor=none;" parent="keo1zelIInVa2BC7bCIQ-249" connectable="0" vertex="1">
          <mxGeometry x="-1" relative="1" as="geometry">
            <mxPoint x="-20" y="-30" as="offset" />
          </mxGeometry>
        </mxCell>
        <mxCell id="keo1zelIInVa2BC7bCIQ-251" value="1" style="edgeLabel;resizable=0;html=1;align=right;verticalAlign=top;labelBackgroundColor=none;labelBorderColor=none;fontFamily=Helvetica;strokeWidth=2;fillColor=#BAC8D3;gradientColor=none;" parent="keo1zelIInVa2BC7bCIQ-249" connectable="0" vertex="1">
          <mxGeometry x="1" relative="1" as="geometry">
            <mxPoint x="20" y="-30" as="offset" />
          </mxGeometry>
        </mxCell>
        <mxCell id="keo1zelIInVa2BC7bCIQ-252" value="" style="endArrow=none;html=1;endSize=12;startArrow=none;startSize=14;startFill=0;edgeStyle=orthogonalEdgeStyle;fontFamily=Helvetica;strokeWidth=1;curved=1;" parent="1" source="keo1zelIInVa2BC7bCIQ-186" target="wU6lkk-Ef7fBL7S0k7bZ-24" edge="1">
          <mxGeometry relative="1" as="geometry">
            <mxPoint x="594" y="390" as="sourcePoint" />
            <mxPoint x="414" y="480" as="targetPoint" />
          </mxGeometry>
        </mxCell>
        <mxCell id="keo1zelIInVa2BC7bCIQ-253" value="n" style="edgeLabel;resizable=0;html=1;align=left;verticalAlign=top;labelBackgroundColor=none;labelBorderColor=none;fontFamily=Helvetica;strokeWidth=2;fillColor=#BAC8D3;gradientColor=none;" parent="keo1zelIInVa2BC7bCIQ-252" connectable="0" vertex="1">
          <mxGeometry x="-1" relative="1" as="geometry">
            <mxPoint x="-20" y="-30" as="offset" />
          </mxGeometry>
        </mxCell>
        <mxCell id="keo1zelIInVa2BC7bCIQ-255" value="" style="endArrow=none;html=1;endSize=12;startArrow=none;startSize=14;startFill=0;edgeStyle=orthogonalEdgeStyle;fontFamily=Helvetica;strokeWidth=1;curved=1;" parent="1" source="keo1zelIInVa2BC7bCIQ-108" target="wU6lkk-Ef7fBL7S0k7bZ-24" edge="1">
          <mxGeometry relative="1" as="geometry">
            <mxPoint x="550" y="690" as="sourcePoint" />
            <mxPoint x="370" y="570" as="targetPoint" />
          </mxGeometry>
        </mxCell>
        <mxCell id="keo1zelIInVa2BC7bCIQ-256" value="n" style="edgeLabel;resizable=0;html=1;align=left;verticalAlign=top;labelBackgroundColor=none;labelBorderColor=none;fontFamily=Helvetica;strokeWidth=2;fillColor=#BAC8D3;gradientColor=none;" parent="keo1zelIInVa2BC7bCIQ-255" connectable="0" vertex="1">
          <mxGeometry x="-1" relative="1" as="geometry">
            <mxPoint y="-20" as="offset" />
          </mxGeometry>
        </mxCell>
        <mxCell id="keo1zelIInVa2BC7bCIQ-257" value="1" style="edgeLabel;resizable=0;html=1;align=right;verticalAlign=top;labelBackgroundColor=none;labelBorderColor=none;fontFamily=Helvetica;strokeWidth=2;fillColor=#BAC8D3;gradientColor=none;" parent="keo1zelIInVa2BC7bCIQ-255" connectable="0" vertex="1">
          <mxGeometry x="1" relative="1" as="geometry">
            <mxPoint x="10" as="offset" />
          </mxGeometry>
        </mxCell>
        <mxCell id="keo1zelIInVa2BC7bCIQ-258" value="" style="endArrow=none;html=1;endSize=12;startArrow=none;startSize=14;startFill=0;edgeStyle=orthogonalEdgeStyle;fontFamily=Helvetica;strokeWidth=1;curved=1;" parent="1" source="keo1zelIInVa2BC7bCIQ-108" target="keo1zelIInVa2BC7bCIQ-167" edge="1">
          <mxGeometry relative="1" as="geometry">
            <mxPoint x="140" y="640" as="sourcePoint" />
            <mxPoint x="-40" y="520" as="targetPoint" />
          </mxGeometry>
        </mxCell>
        <mxCell id="keo1zelIInVa2BC7bCIQ-259" value="n" style="edgeLabel;resizable=0;html=1;align=left;verticalAlign=top;labelBackgroundColor=none;labelBorderColor=none;fontFamily=Helvetica;strokeWidth=2;fillColor=#BAC8D3;gradientColor=none;" parent="keo1zelIInVa2BC7bCIQ-258" connectable="0" vertex="1">
          <mxGeometry x="-1" relative="1" as="geometry">
            <mxPoint x="-10" y="-5" as="offset" />
          </mxGeometry>
        </mxCell>
        <mxCell id="keo1zelIInVa2BC7bCIQ-260" value="1" style="edgeLabel;resizable=0;html=1;align=right;verticalAlign=top;labelBackgroundColor=none;labelBorderColor=none;fontFamily=Helvetica;strokeWidth=2;fillColor=#BAC8D3;gradientColor=none;" parent="keo1zelIInVa2BC7bCIQ-258" connectable="0" vertex="1">
          <mxGeometry x="1" relative="1" as="geometry">
            <mxPoint x="10" as="offset" />
          </mxGeometry>
        </mxCell>
        <mxCell id="keo1zelIInVa2BC7bCIQ-264" value="" style="endArrow=none;html=1;endSize=12;startArrow=none;startSize=14;startFill=0;edgeStyle=orthogonalEdgeStyle;fontFamily=Helvetica;strokeWidth=1;curved=1;" parent="1" source="keo1zelIInVa2BC7bCIQ-142" target="keo1zelIInVa2BC7bCIQ-108" edge="1">
          <mxGeometry relative="1" as="geometry">
            <mxPoint x="570" y="610" as="sourcePoint" />
            <mxPoint x="390" y="765" as="targetPoint" />
            <Array as="points">
              <mxPoint x="680" y="280" />
              <mxPoint x="680" y="850" />
              <mxPoint x="260" y="850" />
            </Array>
          </mxGeometry>
        </mxCell>
        <mxCell id="keo1zelIInVa2BC7bCIQ-265" value="n" style="edgeLabel;resizable=0;html=1;align=left;verticalAlign=top;labelBackgroundColor=none;labelBorderColor=none;fontFamily=Helvetica;strokeWidth=2;fillColor=#BAC8D3;gradientColor=none;" parent="keo1zelIInVa2BC7bCIQ-264" connectable="0" vertex="1">
          <mxGeometry x="-1" relative="1" as="geometry">
            <mxPoint x="5" y="-30" as="offset" />
          </mxGeometry>
        </mxCell>
        <mxCell id="keo1zelIInVa2BC7bCIQ-266" value="1" style="edgeLabel;resizable=0;html=1;align=right;verticalAlign=top;labelBackgroundColor=none;labelBorderColor=none;fontFamily=Helvetica;strokeWidth=2;fillColor=#BAC8D3;gradientColor=none;" parent="keo1zelIInVa2BC7bCIQ-264" connectable="0" vertex="1">
          <mxGeometry x="1" relative="1" as="geometry">
            <mxPoint x="-2" as="offset" />
          </mxGeometry>
        </mxCell>
        <mxCell id="keo1zelIInVa2BC7bCIQ-267" value="" style="endArrow=none;html=1;endSize=12;startArrow=none;startSize=14;startFill=0;edgeStyle=orthogonalEdgeStyle;fontFamily=Helvetica;strokeWidth=1;curved=1;" parent="1" source="keo1zelIInVa2BC7bCIQ-186" target="keo1zelIInVa2BC7bCIQ-108" edge="1">
          <mxGeometry relative="1" as="geometry">
            <mxPoint x="494" y="560" as="sourcePoint" />
            <mxPoint x="414" y="715" as="targetPoint" />
          </mxGeometry>
        </mxCell>
        <mxCell id="keo1zelIInVa2BC7bCIQ-269" value="1" style="edgeLabel;resizable=0;html=1;align=right;verticalAlign=top;labelBackgroundColor=none;labelBorderColor=none;fontFamily=Helvetica;strokeWidth=2;fillColor=#BAC8D3;gradientColor=none;" parent="keo1zelIInVa2BC7bCIQ-267" connectable="0" vertex="1">
          <mxGeometry x="1" relative="1" as="geometry">
            <mxPoint x="11" y="-25" as="offset" />
          </mxGeometry>
        </mxCell>
      </root>
    </mxGraphModel>
  </diagram>
</mxfile>
